<?xml version="1.0" standalone="no"?>
<!DOCTYPE svg PUBLIC "-//W3C//DTD SVG 20010904//EN"
 "http://www.w3.org/TR/2001/REC-SVG-20010904/DTD/svg10.dtd">
<svg version="1.0" xmlns="http://www.w3.org/2000/svg"
 width="1319.000000pt" height="1320.000000pt" viewBox="0 0 1319.000000 1320.000000"
 preserveAspectRatio="xMidYMid meet">

<g transform="translate(0.000000,1320.000000) scale(0.100000,-0.100000)"
fill="#000000" stroke="none">
<path d="M6360 13194 c-301 -15 -658 -54 -920 -100 -445 -78 -942 -218 -1285
-363 -55 -23 -126 -52 -158 -63 -78 -27 -541 -259 -697 -348 -305 -175 -732
-479 -1000 -713 -164 -143 -617 -599 -742 -747 -290 -344 -564 -746 -782
-1149 -390 -719 -659 -1589 -740 -2396 -147 -1451 162 -2879 883 -4077 166
-276 198 -326 316 -488 794 -1091 1902 -1929 3120 -2358 464 -163 802 -250
1235 -316 624 -95 1341 -97 1970 -5 1275 186 2457 738 3424 1600 295 262 661
664 907 994 240 322 417 611 602 980 286 572 448 1040 566 1630 97 491 131
817 131 1285 0 713 -84 1292 -285 1975 -123 417 -333 905 -559 1305 -81 142
-86 150 -255 410 -368 566 -876 1111 -1476 1582 -139 110 -477 339 -675 458
-188 114 -655 343 -870 427 -684 270 -1269 406 -1970 458 -204 15 -611 25
-740 19z m721 -409 c591 -55 960 -130 1499 -307 598 -195 1261 -548 1780 -947
300 -230 710 -619 951 -901 477 -558 838 -1171 1087 -1840 137 -369 197 -577
267 -925 214 -1069 169 -2061 -139 -3093 -133 -443 -388 -1006 -640 -1412
-481 -776 -1150 -1467 -1886 -1945 -58 -38 -123 -80 -145 -95 -57 -38 -327
-191 -426 -241 -206 -103 -553 -254 -744 -322 -850 -305 -1822 -419 -2755
-322 -890 93 -1756 382 -2520 843 -449 271 -823 565 -1210 952 -455 454 -789
908 -1106 1505 -380 713 -606 1503 -680 2375 -19 228 -21 715 -4 945 59 801
263 1556 610 2260 145 294 223 431 394 690 224 339 386 545 658 835 336 359
669 644 1033 885 561 372 981 578 1575 774 486 160 786 219 1500 294 109 12
750 6 901 -8z"/>
<path d="M11098 9949 c-103 -105 -216 -225 -250 -267 -135 -168 -269 -398
-316 -542 -40 -120 -54 -313 -32 -431 15 -84 80 -205 157 -292 147 -168 163
-191 195 -274 17 -46 35 -83 40 -83 17 0 85 71 115 122 18 29 40 83 50 120 15
58 16 76 5 140 -7 40 -29 109 -49 153 -113 253 -130 318 -112 420 17 97 60
173 148 265 99 102 111 102 129 5 55 -299 46 -274 188 -530 45 -82 91 -177
100 -210 26 -90 23 -207 -11 -353 -17 -80 -24 -127 -18 -133 14 -14 131 49
222 118 186 143 262 302 248 518 -12 176 -57 280 -245 561 -200 297 -257 432
-301 714 -12 74 -24 143 -27 153 -13 43 -49 17 -236 -174z"/>
<path d="M1109 7844 c-13 -37 -41 -293 -37 -351 l3 -48 175 -8 c96 -4 225 -10
286 -13 l111 -6 6 -156 c4 -87 7 -648 7 -1249 l0 -1092 22 -12 c25 -13 144 -8
368 15 105 12 137 18 147 32 10 13 13 76 14 233 12 1853 15 2221 22 2228 5 4
124 11 265 14 141 3 258 7 259 7 16 12 46 276 41 362 l-3 55 -60 6 c-33 4
-410 7 -838 8 l-777 1 -11 -26z"/>
<path d="M3600 7867 c-3 -3 -88 -13 -190 -22 -102 -8 -192 -18 -201 -20 -12
-4 -18 -24 -23 -82 -3 -42 -6 -692 -6 -1444 l0 -1368 37 -7 c56 -10 417 14
475 32 10 3 21 17 25 32 5 15 8 662 8 1439 0 1079 -3 1415 -12 1424 -12 12
-104 25 -113 16z"/>
<path d="M4126 7861 c-9 -15 -36 -270 -36 -342 0 -54 3 -68 18 -75 9 -4 135
-10 279 -13 194 -4 265 -9 275 -19 10 -10 14 -259 18 -1247 5 -1136 6 -1236
22 -1251 15 -16 32 -16 249 0 128 10 241 22 251 27 10 5 18 20 19 32 1 12 5
560 9 1217 4 657 10 1205 15 1217 7 21 11 21 257 25 244 3 250 3 268 25 23 29
38 116 46 274 l7 126 -408 6 c-587 10 -1283 9 -1289 -2z"/>
<path d="M6855 7859 c-290 -13 -376 -23 -395 -46 -20 -25 -35 -92 -184 -798
-69 -324 -162 -759 -206 -965 -170 -785 -212 -997 -214 -1055 l-1 -59 40 -8
c50 -9 362 -8 395 1 30 8 36 27 95 311 68 325 56 302 167 311 127 10 606 -2
617 -15 5 -6 30 -124 56 -261 56 -306 61 -324 94 -337 27 -11 426 -4 517 9
l46 6 -7 46 c-7 50 -202 967 -310 1456 -97 442 -180 825 -226 1042 -22 106
-52 229 -67 275 -27 83 -27 83 -67 90 -48 8 -99 8 -350 -3z m-41 -521 c25 -87
230 -1149 242 -1250 l6 -58 -246 0 -246 0 0 44 c0 51 20 189 90 636 82 512
114 680 131 680 4 0 15 -24 23 -52z"/>
<path d="M8288 7863 c-35 -4 -37 -7 -43 -46 -9 -65 -1 -2874 8 -2884 14 -13
628 -9 762 5 259 28 451 80 604 163 109 60 161 100 213 166 119 152 150 254
152 493 1 196 -15 281 -75 408 -48 99 -150 213 -240 268 -33 19 -59 43 -59 51
0 9 33 49 74 88 41 40 90 97 109 126 96 151 133 405 87 599 -73 305 -280 474
-665 546 -73 13 -167 17 -490 19 -220 2 -417 1 -437 -2z m814 -458 c88 -18
145 -45 186 -86 110 -109 132 -327 50 -489 -42 -83 -97 -122 -206 -146 -79
-18 -301 -26 -334 -12 -17 7 -18 34 -18 363 0 434 -12 401 149 391 58 -3 136
-13 173 -21z m20 -1160 c149 -25 251 -93 300 -200 21 -45 23 -64 23 -205 0
-149 -1 -157 -28 -211 -30 -62 -117 -151 -188 -192 -77 -45 -189 -68 -315 -65
l-109 3 -6 135 c-4 74 -7 261 -8 415 -1 307 2 325 54 336 38 9 178 0 277 -16z"/>
<path d="M10502 7863 l-72 -4 2 -1459 c2 -802 7 -1462 11 -1467 14 -13 1414
-10 1427 3 28 28 64 394 40 409 -7 4 -210 12 -452 16 -272 6 -447 13 -459 20
-19 10 -20 21 -17 414 2 222 7 407 11 412 5 4 134 10 287 13 251 4 281 7 297
23 16 15 18 41 21 200 4 202 0 242 -26 252 -9 4 -139 9 -289 12 -149 3 -278
10 -285 14 -28 18 -28 663 0 691 10 10 101 15 385 20 403 8 449 11 468 34 13
16 38 221 39 325 l0 66 -107 6 c-105 7 -1141 6 -1281 0z"/>
<path d="M2357 4336 c-87 -32 -146 -93 -173 -182 -9 -30 -14 -92 -14 -173 0
-241 28 -318 135 -378 l60 -33 4140 2 4140 3 37 23 c54 34 116 109 125 151 5
20 8 119 8 221 -1 152 -4 191 -17 221 -26 55 -64 95 -122 129 l-53 30 -4114 0
c-3427 -1 -4120 -3 -4152 -14z"/>
</g>
</svg>
